<svg version="1.1" viewBox="0 0 96 96" xml:space="preserve" xmlns="http://www.w3.org/2000/svg">
	<rect x="2" y="2" width="92" height="92" rx="21.8077" ry="21.8077" fill="#0c1f0a" stroke="#4e9a41" stroke-linecap="round" stroke-linejoin="round" stroke-width="4" />
	<path transform="matrix(1.02232 0 0 1.02157 -.486462 -.949528)" d="m43.7227 7.07617c-9.39081 0.941387-18.3821 4.76516-25.541 10.8613-2.3354 1.98869-1.80779 3.51468-0.69336 4.58789 1.1195 1.0781 2.18951 1.12058 4.58008-0.869141 15.0779-12.5484 36.8088-12.5696 51.7676-0.04883 2.38151 1.99341 3.51212 1.7098 4.60742 0.613281 0.999777-1.00089 1.68006-2.2842-0.5625-4.20508-6.50846-5.57498-14.0584-9.07353-22.8203-10.5742-1.93975-0.332302-9.30283-0.569287-11.3379-0.365234zm6.27734 9.88086c-1.8633-0.09655-3.73263-0.06368-5.59375 0.103516-12.6715 1.13827-24.4356 7.97954-31.625 18.3926-2.50091 3.62214 1.57474 6.84751 4.16602 3.29688 15.8597-21.7324 45.3234-22.1777 61.3633-0.927734 1.62068 2.14706 2.75744 2.35067 4.05078 1.67188 1.2084-0.634212 2.15649-2.0925 0.863281-4.00195-7.44226-10.8897-20.1815-17.8593-33.2246-18.5352zm0.859375 10.0938c-2.40561-0.221121-4.87455-0.170662-7.37695 0.181641-20.933 2.94708-33.9742 24.6345-27.1855 45.209 1.55254 4.7055 4.94933 10.5223 6.64844 11.3848 2.45336 1.24583 4.9023-1.61968 3.31641-3.88086-5.43082-7.74273-7.39494-15.0202-6.18555-22.9082 3.43816-22.4255 29.1221-32.528 45.7598-17.998 8.88997 7.76363 13.4311 23.6913 8.28516 29.0605-4.91063 5.12365-12.1273 1.32887-12.1426-6.38476-0.03211-16.4631-21.5482-20.4211-26.9805-4.96289-2.62916 7.48152 0.338979 16.5345 7.99219 24.3809 4.58497 4.70059 9.70205 7.79102 12.9004 7.79102 3.68271 0 3.92187-4.50887 0.275391-5.18945-2.15775-0.402573-4.76653-1.98974-7.70117-4.6875-9.18105-8.4395-11.7416-18.377-6.22656-24.1562 5.5041-5.76817 14.4173-1.48676 14.4297 6.93164 0.01235 8.40754 5.58834 14.2326 13.1816 13.7676 6.9918-0.428387 11.6172-5.81457 11.6016-13.5098-0.038005-18.5781-13.7525-33.4814-30.5918-35.0293zm-4.48242 9.95312c-15.854 1.3538-25.9368 17.0444-20.7129 32.2324 1.9027 5.53236 6.24008 12.446 11.1484 17.7676 1.87697 2.0352 3.40695 2.07348 4.59375 1.04492 1.0944-0.948478 1.53755-2.27132-0.351562-4.33008-11.9555-13.0288-14.6125-24.8501-7.65039-34.0449 10.5069-13.8764 31.9162-6.96376 33.0156 10.6602 0.156243 2.5021 1.29233 3.70074 2.73438 3.44141 2.35188-0.422963 3.09537-1.74603 2.22461-6.81641-2.05771-11.9807-13.3011-20.9544-25.002-19.9551zm1.32227 20.0762c-0.478763 0.0076-0.940716 0.105709-1.24219 0.291016-2.7047 1.66254-1.0546 10.0322 3.25391 16.5078 5.58109 8.38828 18.0792 13.5718 18.5078 7.67578 0.129689-1.78505-0.762722-2.64955-2.9707-2.87695-7.23245-0.745529-13.9057-8.80716-14.748-17.8164-0.224379-2.39885-0.507225-3.08258-1.45703-3.53125-0.370021-0.174756-0.864987-0.257555-1.34375-0.25z" fill="#113e09" stroke="#89d67b" stroke-width="10" style="paint-order:stroke markers fill" />
</svg>
