<svg version="1.1" viewBox="0 0 96 96" xml:space="preserve" xmlns="http://www.w3.org/2000/svg">
	<rect x="2" y="2" width="92" height="92" rx="21.8077" ry="21.8077" fill="#290000" stroke="#a03b3b" stroke-linecap="round" stroke-linejoin="round" stroke-width="4"/>
	
<path d="m60.1417 47.9913a78.1479 78.1479 0 0 1-9.1847 36.7527 4.17863 4.17863 0 1 1-7.36871-3.9428 69.7684 69.7684 0 0 0 8.19577-32.8099 2.78588 2.78588 0 1 0-5.57176 0 4.17882 4.17882 0 0 1-8.35765 0 11.1435 11.1435 0 1 1 22.2871 0zm-11.1435-25.0729a4.17882 4.17882 0 0 0 0 8.35764 16.734 16.734 0 0 1 16.7153 16.7153c0 2.65564-0.125828 5.33541-0.374419 7.96486a4.1792 4.1792 0 0 0 3.76767 4.55324q0.200472 0.01888 0.397545 0.0187a4.17952 4.17952 0 0 0 4.1557-3.78638c0.272738-2.88926 0.411147-5.83362 0.411147-8.75043a25.1012 25.1012 0 0 0-25.0729-25.0729zm-11.1432 12.6137a4.17899 4.17899 0 1 0-5.57449-6.22742 25.1107 25.1107 0 0 0-8.35526 18.6867 41.8077 41.8077 0 0 1-5.26671 20.3259 4.17871 4.17871 0 1 0 7.29866 4.07136 50.1833 50.1833 0 0 0 6.32569-24.3972 16.7419 16.7419 0 0 1 5.5721-12.4593zm3.5184 22.3234a4.17967 4.17967 0 0 0-5.03343 3.09705 55.2966 55.2966 0 0 1-6.576 15.9716 4.17887 4.17887 0 1 0 7.13882 4.34614 63.6499 63.6499 0 0 0 7.56766-18.3813 4.17915 4.17915 0 0 0-3.09705-5.03343zm26.722 8.38042a4.17557 4.17557 0 0 0-5.10076 2.98415 83.2247 83.2247 0 0 1-2.78282 8.65895 4.1789 4.1789 0 1 0 7.80469 2.98993 91.588 91.588 0 0 0 3.06304-9.53226 4.17851 4.17851 0 0 0-2.98415-5.10076zm-19.0931-57.2469a39.0468 39.0468 0 0 0-39.002 38.8051c-0.0027 0.06529-0.0044 0.131268-0.0044 0.197241a27.7656 27.7656 0 0 1-1.73029 9.69005 4.17891 4.17891 0 1 0 7.83599 2.90695 36.0875 36.0875 0 0 0 2.25129-12.3991c0.0031-0.06529 0.0048-0.131609 0.0048-0.197923a30.6448 30.6448 0 0 1 61.289-0.174814c-0.0024 0.05781-0.0037 0.11631-0.0037 0.174814a98.0784 98.0784 0 0 1-2.34957 21.3753 4.17891 4.17891 0 1 0 8.15632 1.82415 106.446 106.446 0 0 0 2.55055-23.0094c0.0031-0.06291 0.0044-0.126506 0.0044-0.190101a39.0466 39.0466 0 0 0-39.0024-39.0023z" fill="#420000" stroke="#f26969" stroke-width="10.6" style="paint-order:markers stroke fill"/></svg>
